# xmcd
# 
# Track frame offsets:
#     150
#     21633
#     42397
#     55795
#     69927
#     89109
#     107095
#     122965
#     133700
#     149092
#     164641
# 
# Disc length: 2446
# 
# Revision: 0
# Processed by: cddbd v1.5.2PL0 Copyright (c) Steve Scherf et al.
# Submitted via: BonkEnc v1.0.8
# 
DISCID=af098c0b
DTITLE=Bebel Gilberto - Tanto Tempo
DYEAR=2000
DGENRE=Latin
TTITLE0=Samba da Benção
TTITLE1=August Day Song
TTITLE2=Tanto Tempo
TTITLE3=Sem Contenção
TTITLE4=Mais Feliz
TTITLE5=Alguém
TTITLE6=So Nice (Summer Samba)
TTITLE7=Lonely
TTITLE8=Bananeira
TTITLE9=Samba e Amor
TTITLE10=Close Your Eyes
EXTD=
EXTT0=
EXTT1=
EXTT2=
EXTT3=
EXTT4=
EXTT5=
EXTT6=
EXTT7=
EXTT8=
EXTT9=
EXTT10=
PLAYORDER=
